<svg width="103" height="22" viewBox="0 0 103 22" fill="none" xmlns="http://www.w3.org/2000/svg">
<path d="M0.690259 14.6675L1.08287 13.7735C1.35055 13.1656 1.83239 13.0047 2.43915 13.4517C3.59913 14.3099 5.50863 14.9357 8.06058 14.9357C10.2378 14.9357 11.1658 14.3814 11.1658 13.7199C11.1658 12.9689 10.3984 12.7722 9.13133 12.6113L6.24031 12.2358C2.76037 11.771 1.01148 10.5194 1.01148 8.33801C1.01148 5.99574 2.92099 4.13623 7.34675 4.13623C9.80947 4.13623 11.3978 4.51171 12.4328 4.90507C13.5749 5.35206 13.7356 5.72754 13.7356 6.6573V7.87313C13.7356 8.62409 13.4679 8.87441 12.7362 8.87441H11.9153C11.1658 8.87441 10.9159 8.60621 10.9159 7.87313V7.47977C10.4341 7.31885 9.23841 7.08641 7.84643 7.08641C5.40156 7.08641 4.22373 7.53341 4.22373 8.28437C4.22373 8.83865 4.93756 9.16048 6.24031 9.33928L9.0778 9.71476C12.5042 10.1439 14.3245 11.1809 14.3245 13.6841C14.3245 16.223 11.9153 17.8501 7.61444 17.8501C4.45573 17.8501 1.92162 16.8488 0.904409 15.9191C0.547492 15.5615 0.493955 15.1145 0.690259 14.6675Z" fill="black"/>
<path d="M32.0261 17.6352H30.5628C29.849 17.6352 29.617 17.5279 29.26 16.9915L26.5118 12.9328C26.1192 12.3785 25.8158 12.2354 24.9949 12.2354H22.2466V16.6339C22.2466 17.3849 21.9789 17.6352 21.2473 17.6352H20.1944C19.4448 17.6352 19.195 17.367 19.195 16.6339V3.43854H18.2135C17.464 3.43854 17.2141 3.17034 17.2141 2.43726V1.54327C17.2141 0.792311 17.4818 0.541992 18.2135 0.541992H21.2651C22.0146 0.541992 22.2645 0.810191 22.2645 1.54327V9.26738H24.7272C25.5481 9.26738 25.8336 9.14223 26.2441 8.57007L28.5462 5.01197C28.921 4.45769 29.153 4.35041 29.8668 4.35041H31.3302C32.1332 4.35041 32.276 4.99409 31.8298 5.65564L29.26 9.55346C28.9924 9.92894 28.6711 10.3223 28.3678 10.6441C28.689 10.9123 29.1351 11.3593 29.3136 11.6275L32.5258 16.3657C32.972 16.9915 32.8114 17.6352 32.0261 17.6352Z" fill="black"/>
<path d="M37.2481 20.0667V19.1906C37.2481 18.4396 37.5158 18.1893 38.2475 18.1893H39.5145C40.2819 18.1893 40.6567 18.0284 40.9422 17.4205L41.1028 17.0808L35.0352 5.584C34.6605 4.88668 34.9638 4.36816 35.7491 4.36816H37.1232C37.837 4.36816 38.1582 4.49332 38.4259 5.01184L40.96 10.2328C41.549 11.4307 42.2092 12.8075 42.7268 14.0054C43.2622 12.8432 43.8689 11.5022 44.44 10.3401L47.0276 5.01184C47.2596 4.5112 47.6165 4.36816 48.3304 4.36816H49.7045C50.5076 4.36816 50.7931 4.90456 50.4183 5.584L43.512 18.7257C42.7089 20.2455 41.7988 21.0859 39.7287 21.0859H38.2118C37.498 21.0859 37.2481 20.8177 37.2481 20.0667Z" fill="black"/>
<path d="M69.0802 11.0021C69.0802 15.2218 65.9572 17.8501 61.7456 17.8501C59.9253 17.8501 58.5333 17.4031 57.5518 16.8488V20.4606C57.5518 21.2115 57.2841 21.4619 56.5524 21.4619H55.4995C54.75 21.4619 54.5002 21.1937 54.5002 20.4606V7.26521H53.5187C52.7691 7.26521 52.5193 6.99701 52.5193 6.26394V5.36994C52.5193 4.61899 52.787 4.36867 53.5187 4.36867H56.0884C56.838 4.36867 57.0878 4.63687 57.0878 5.36994V5.44146C58.0872 4.77991 59.6041 4.13623 61.7456 4.13623C65.9572 4.15411 69.0802 6.78246 69.0802 11.0021ZM65.9036 11.0021C65.9036 8.53469 63.9228 7.15793 61.46 7.15793C59.6933 7.15793 58.2478 7.90889 57.5696 8.51681V13.5053C58.2656 14.1132 59.6933 14.8642 61.46 14.8642C63.9228 14.8463 65.9036 13.4695 65.9036 11.0021Z" fill="black"/>
<path d="M85.7054 9.96527C85.7054 10.7162 85.4377 10.9665 84.7061 10.9665H83.6532C82.9036 10.9665 82.6538 10.752 82.6538 9.96527C82.6538 7.99848 81.9043 7.12236 80.1197 7.12236C78.4243 7.12236 77.0145 8.17728 76.2293 9.46463V16.6345C76.2293 17.3854 75.9616 17.6357 75.2299 17.6357H74.177C73.4275 17.6357 73.1777 17.3675 73.1777 16.6345V7.2654H72.1961C71.4466 7.2654 71.1968 6.9972 71.1968 6.26413V5.37013C71.1968 4.61917 71.4645 4.36886 72.1961 4.36886H74.7659C75.5155 4.36886 75.7653 4.63705 75.7653 5.37013V6.22837C76.7111 5.17345 78.1566 4.1543 80.6194 4.1543C84.2242 4.1543 85.7054 6.29989 85.7054 9.96527Z" fill="black"/>
<path d="M87.5999 11.0023C87.5999 7.06872 90.9192 4.1543 95.3271 4.1543C99.6993 4.1543 103.001 7.06872 103.001 11.0023C103.001 14.9538 99.6815 17.8682 95.3271 17.8682C90.9192 17.8682 87.5999 14.9538 87.5999 11.0023ZM99.967 11.0023C99.967 8.71367 97.9504 7.05084 95.3271 7.05084C92.6502 7.05084 90.6336 8.73155 90.6336 11.0023C90.6336 13.3088 92.6502 14.9895 95.3271 14.9895C97.9683 14.9895 99.967 13.3088 99.967 11.0023Z" fill="black"/>
</svg>
