<svg width="17" height="18" viewBox="0 0 17 18" fill="none" xmlns="http://www.w3.org/2000/svg">
<path d="M8.28362 17.1637C3.7493 17.1637 0.0605469 13.4749 0.0605469 8.94063C0.0605469 4.68636 3.2507 1.16866 7.48069 0.758022C7.75157 0.731042 8.00734 0.879975 8.11904 1.12711C8.23128 1.37425 8.17408 1.6651 7.97658 1.85073C6.94539 2.82148 6.37773 4.13111 6.37773 5.53894C6.37773 8.33519 8.65271 10.6102 11.449 10.6102C12.9739 10.6102 14.4033 9.93242 15.3719 8.75176C15.544 8.54186 15.8311 8.46577 16.0836 8.55966C16.3378 8.65463 16.5029 8.9007 16.4954 9.17158C16.3713 13.653 12.764 17.1637 8.28362 17.1637ZM5.94982 2.3844C3.22642 3.3422 1.32808 5.9226 1.32808 8.94063C1.32808 12.7762 4.44809 15.8962 8.28362 15.8962C11.4959 15.8962 14.1772 13.762 14.9834 10.8028C13.9506 11.4984 12.7262 11.8788 11.449 11.8788C7.95338 11.8788 5.10965 9.0356 5.10965 5.53948C5.10965 4.41062 5.40104 3.33249 5.94982 2.3844Z" fill="white"/>
</svg>
