<svg width="26" height="26" viewBox="0 0 26 26" fill="none" xmlns="http://www.w3.org/2000/svg">
<path d="M12.887 19.5137C9.45775 19.5137 6.66797 16.7239 6.66797 13.2947C6.66797 9.86542 9.45775 7.07617 12.887 7.07617C16.3163 7.07617 19.106 9.86595 19.106 13.2947C19.106 16.7239 16.3163 19.5137 12.887 19.5137ZM12.887 8.31966C10.1438 8.31966 7.91199 10.5515 7.91199 13.2947C7.91199 16.0384 10.1438 18.2697 12.887 18.2697C15.6302 18.2697 17.862 16.0384 17.862 13.2947C17.862 10.552 15.6302 8.31966 12.887 8.31966Z" fill="black"/>
<path d="M12.8867 4.71028C12.5431 4.71028 12.2646 4.43131 12.2646 4.08827V1.49648C12.2646 1.15292 12.5431 0.875 12.8867 0.875C13.2297 0.875 13.5087 1.15292 13.5087 1.49648V4.08827C13.5087 4.43131 13.2297 4.71028 12.8867 4.71028Z" fill="black"/>
<path d="M19.0762 7.87173C18.9169 7.87173 18.7581 7.81086 18.6363 7.68963C18.3934 7.44718 18.3934 7.05333 18.6363 6.81035L20.8645 4.58223C21.1074 4.33978 21.5008 4.33978 21.7437 4.58223C21.9867 4.82521 21.9867 5.21906 21.7437 5.46151L19.5156 7.68963C19.3944 7.81086 19.2356 7.87173 19.0762 7.87173Z" fill="black"/>
<path d="M5.70635 7.87173C5.54701 7.87173 5.38767 7.81086 5.26644 7.68963L3.0378 5.46151C2.79534 5.21906 2.79534 4.82521 3.0378 4.58223C3.28078 4.33978 3.67463 4.33978 3.91708 4.58223L6.14573 6.81035C6.38818 7.05333 6.38818 7.44771 6.14573 7.68963C6.0245 7.81086 5.86516 7.87173 5.70635 7.87173Z" fill="black"/>
<path d="M12.3915 25.621C12.048 25.621 11.7695 25.3425 11.7695 24.999V22.4072C11.7695 22.0636 12.048 21.7852 12.3915 21.7852C12.7346 21.7852 13.013 22.0636 13.013 22.4072V24.999C13.013 25.3425 12.7346 25.621 12.3915 25.621Z" fill="black"/>
<path d="M3.97317 22.0963C3.81436 22.0963 3.65502 22.0354 3.5338 21.9142C3.29082 21.6717 3.29082 21.2774 3.5338 21.0344L5.76192 18.8063C6.0049 18.5633 6.39822 18.5633 6.6412 18.8063C6.88418 19.0487 6.88418 19.4426 6.6412 19.6855L4.41308 21.9142C4.29186 22.0354 4.13251 22.0963 3.97317 22.0963Z" fill="black"/>
<path d="M21.8005 22.0963C21.6416 22.0963 21.4823 22.0354 21.3605 21.9142L19.1324 19.6855C18.8895 19.4426 18.8895 19.0492 19.1324 18.8063C19.3754 18.5633 19.7687 18.5633 20.0117 18.8063L22.2398 21.0344C22.4828 21.2774 22.4828 21.6707 22.2398 21.9142C22.1186 22.0354 21.9598 22.0963 21.8005 22.0963Z" fill="black"/>
<path d="M3.47788 13.9169H0.679627C0.336066 13.9169 0.0576172 13.6384 0.0576172 13.2949C0.0576172 12.9518 0.336066 12.6729 0.679627 12.6729H3.47788C3.82144 12.6729 4.09989 12.9513 4.09989 13.2949C4.09936 13.6384 3.82144 13.9169 3.47788 13.9169Z" fill="black"/>
<path d="M24.6212 13.9169H21.3041C20.9606 13.9169 20.6821 13.6384 20.6821 13.2949C20.6821 12.9518 20.9606 12.6729 21.3041 12.6729H24.6212C24.9642 12.6729 25.2432 12.9513 25.2432 13.2949C25.2432 13.6384 24.9642 13.9169 24.6212 13.9169Z" fill="black"/>
</svg>
